<?xml version="1.0" encoding="utf-8"?>
<!-- Generator: Adobe Illustrator 21.1.0, SVG Export Plug-In . SVG Version: 6.00 Build 0)  -->
<svg version="1.1" id="レイヤー_1" xmlns="http://www.w3.org/2000/svg" xmlns:xlink="http://www.w3.org/1999/xlink" x="0px"
	 y="0px" viewBox="0 0 213 55.3" style="enable-background:new 0 0 213 55.3;" xml:space="preserve">
<style type="text/css">
	.st0{fill:#E83818;}
</style>
<rect x="12.2" y="11.1" class="st0" width="15.9" height="7.4"/>
<g>
	<path d="M14.9,30.1v2.1h-4.1L11,20.3v-7.4l-0.1-4.6l0.2-0.2l4.6,0.1h9.7l4.5-0.1l0.2,0.2l-0.1,4.6v7l0.1,12.3H26v-2.1H14.9z
		 M26,11.6H14.9v5.7H26V11.6z M26,20.7H14.9v5.9H26V20.7z"/>
	<path d="M50.5,14.7c3.1,4.3,6.4,7.5,10.2,9.9l-2.5,3.3c-0.1,0.1-0.2,0.2-0.3,0.2c-0.1,0-0.2-0.1-0.4-0.2c-3.5-3.2-6.2-6.2-8.3-9.6
		l0.1,6h0.8l3.5-0.1l0.2,0.2v3l-0.2,0.2l-3.5-0.1h-0.7l0.1,4.7h-4.3l0.1-4.7h-0.3l-3.5,0.1l-0.2-0.2v-3l0.2-0.2l3.5,0.1h0.4l0.1-5.7
		c-2,3.5-5,6.9-8.1,9.5c-0.1,0.1-0.2,0.2-0.4,0.2c-0.1,0-0.2-0.1-0.4-0.2l-2.4-2.7c3.6-2.6,7-6.1,9.9-10.7H40l-4.5,0.1l-0.2-0.2
		v-3.1l0.2-0.2l4.5,0.1h5.4V6.7l0.2-0.2h3.6l0.2,0.2v4.7h5.7l4.5-0.1l0.2,0.2v3.1l-0.2,0.2l-4.5-0.1H50.5z"/>
	<path d="M83.5,29.6c-1.9-2.5-4.3-4.9-6.4-6.9C74.2,25.9,71,28,67.2,30c-0.3,0.1-0.5,0.2-0.6,0.2c-0.2,0-0.3-0.1-0.5-0.2l-3.4-2.6
		c6.7-3.1,12.5-7.5,15.1-13.5h-6.9L66.6,14l-0.2-0.2V9.8l0.3-0.2L71,9.7h8.2l3-0.1l1.8,1.7c0.2,0.2,0.3,0.3,0.3,0.5
		c0,0.2-0.1,0.4-0.3,0.7c-1.3,2.6-2.7,4.8-4,6.7c2.8,2.3,4.9,4.2,7.3,6.9l0,0.3l-3.4,3.2L83.5,29.6z"/>
	<path d="M111.8,27.3H97.1l-4.3,0.1l-0.2-0.2v-4.1l0.3-0.2L97,23h14.6l4.5-0.1l0.2,0.2v4.1l-0.2,0.2L111.8,27.3z M109.1,16.1h-8.9
		L96,16.2L95.8,16v-4.1l0.3-0.2l4.1,0.1h8.8l3.9-0.1l0.2,0.2v4l-0.2,0.2L109.1,16.1z"/>
	<path d="M139.9,21.8h-12.9l-4.3,0.1l-0.2-0.2v-4.1l0.3-0.2l4.1,0.1h12.9l4.5-0.1l0.2,0.2v4.1l-0.2,0.2L139.9,21.8z"/>
	<path d="M163.9,16.1c-0.4,2.5-1,4.6-2,6.5c-2.1,3.8-4.8,6.2-8.2,8.1c-0.1,0.1-0.3,0.1-0.3,0.1c-0.1,0-0.3-0.1-0.5-0.3l-3.3-2.4
		c3.8-1.9,6.4-4,8.1-7.3c0.7-1.3,1.2-2.9,1.5-4.7h-2.7l-4.1,0.1l-0.2-0.2v-3.8l0.3-0.2l4.1,0.1h3.2c0.1-1.3,0.1-2.8,0.1-4.4l0.2-0.2
		h4.3l0.2,0.2c0,1.6,0,3.1-0.1,4.4h4.8l3.6-0.1l0.2,0.3c-0.2,4.7-0.7,10.1-1.2,12.4c-0.9,3.8-1.7,5.6-7,5.6c-0.8,0-0.8-0.1-1-0.5
		l-1.7-4.1c1.1,0.1,2.2,0.1,3.2,0.1c0.9,0,1.5-0.2,2-2.5c0.4-1.6,0.7-4.5,0.8-7.1H163.9z"/>
	<path d="M197.8,21.8h-12.9l-4.3,0.1l-0.2-0.2v-4.1l0.3-0.2l4.1,0.1h12.9l4.5-0.1l0.2,0.2v4.1l-0.2,0.2L197.8,21.8z"/>
</g>
<g>
	<path d="M120.2,45.9c1,0.2,2.1,0.5,3.2,0.8l0,0.1l-1.1,1.3l-0.1,0c-1.4-0.5-3.1-0.9-4.6-1.2l0-0.1l0.9-1H115l1,0.9l0,0.1
		c-1.3,0.5-3.1,1.1-4.6,1.3c-0.2,0-0.3,0-0.4-0.1l-0.9-1.3c1.5-0.2,2.8-0.5,3.9-0.9l-1.8,0l-0.1-0.1l0.1-2v-2.7l0-1.7l0.1-0.1l1.8,0
		h5.6l1.8,0l0.1,0.1l0,1.7v2.7l0,2l-0.1,0.1L120.2,45.9z M122.8,35.2l0.1,0.1l0,1.2v0.7l0,1.5l-0.1,0.1l-2.1,0h-7.8l-2.2,0l-0.1-0.1
		l0-1.5v-0.7l0-1.3l0.1-0.1l2.2,0h7.8L122.8,35.2z M112.6,36.6v0.8h1.4v-0.8H112.6z M119.4,41.2v-0.6h-5.2v0.6H119.4z M119.4,42.9
		v-0.6h-5.2v0.6H119.4z M114.2,44.6h5.2V44h-5.2V44.6z M117.4,36.6H116v0.8h1.5V36.6z M120.9,37.4v-0.8h-1.5v0.8H120.9z"/>
	<path d="M130.6,48.2h-2l0-3c-1.1,0.3-2.4,0.6-3.8,0.9l-0.1-0.1l-0.5-1.7l0.1-0.1c0.4-0.1,0.7-0.1,1.1-0.2v-7.4l-0.9,0l-0.1-0.1
		v-1.6l0.1-0.1l1.6,0h3.7l1.8,0l0.1,0.1v1.5l1.5,0h2.1l1.2-0.1l0.7,0.7c0.1,0.1,0.1,0.2,0.1,0.5c-0.4,3-0.8,4.7-1.9,6.6
		c0.7,0.7,1.5,1.3,2.5,1.9l-1.2,1.6c-0.1,0.1-0.1,0.1-0.2,0.1c-0.1,0-0.1,0-0.2-0.1c-0.9-0.6-1.6-1.2-2.2-1.9
		c-0.6,0.8-1.3,1.4-2.2,2.1c-0.1,0-0.1,0.1-0.1,0.1c-0.1,0-0.1,0-0.2-0.2l-0.9-1.1L130.6,48.2z M128.6,37.9v-1.2h-1.5v1.2H128.6z
		 M127.2,39.5v1.3h1.5v-1.3H127.2z M127.2,42.3v1.5c0.5-0.1,1-0.2,1.5-0.3v-1.2H127.2z M130.6,46.5c0.5-0.3,1-0.7,1.4-1.1
		c0.4-0.3,0.7-0.7,1-1c-0.8-1.4-1.3-3.1-1.6-5.4l0.1-0.1l1.7-0.2l0.1,0.1c0.1,1.5,0.4,2.7,0.8,3.7c0.5-1.2,0.8-2.5,1-4.1h-1.9l-2,0
		l-0.1-0.1v-1.6l-0.5,0v6.5L130.6,46.5z"/>
	<path d="M143.2,35.5l0.1-0.1h2.4l0.1,0.1l0,3.1l3.5-1l1.6-0.6l1.5,1.4c0.2,0.2,0.3,0.3,0.3,0.4c0,0.1,0,0.2-0.1,0.4
		c-0.8,1.5-1.7,3-2.6,4.1c-0.2,0.3-0.3,0.3-0.6,0.1l-1.8-0.8c0.8-1,1.3-1.9,1.8-2.7l-3.4,1l0,2.9c0,0.5,0,0.7,0.2,0.9
		c0.2,0.2,0.5,0.3,1.4,0.3c1.2,0,2.6-0.1,4.5-0.2l0.1,0.1l0,2.2l-0.1,0.1c-1.5,0.1-3,0.2-4.5,0.2c-1.9,0-3.1-0.1-3.8-0.9
		c-0.5-0.6-0.4-1.3-0.4-2.4l0-2.4L142,42l-2.1,0.7l-0.2,0l-0.6-2.1l0.1-0.2l2.2-0.6l1.8-0.5L143.2,35.5z"/>
	<path d="M156.7,38.1l1.6-1.8l0.2,0c1,0.5,2.3,1.4,3.3,2.3v0.2l-1.7,2l-0.1,0c-1-0.9-2.1-1.8-3.2-2.5L156.7,38.1z M169.4,39.5
		c0,0.1,0.1,0.2,0.1,0.3c0,0.1,0,0.2-0.2,0.3c-2.9,3.2-6.5,5.6-10.8,7.6l-0.2,0l-1.5-2.2l0-0.2c4.1-1.6,8.3-4.4,11.6-8.3L169.4,39.5
		z"/>
	<path d="M184.7,37.6c0.1,0.1,0.2,0.2,0.2,0.3c0,0.1,0,0.1-0.1,0.3c-0.8,1.7-1.6,3.2-2.6,4.5c0.5,0.4,1,0.9,1.6,1.4v0.2l-1.6,1.8
		l-0.1,0c-0.5-0.5-0.9-1-1.4-1.5c-1.5,1.5-3.3,2.8-5.5,3.9c-0.1,0.1-0.2,0.1-0.3,0.1c-0.1,0-0.2,0-0.4-0.2l-1.9-1.3
		c2.6-1.1,4.7-2.5,6.3-4.1c-0.6-0.4-1.2-0.9-1.8-1.3v-0.2l1.4-1.5l0.2,0c0.6,0.4,1.2,0.7,1.8,1.1c0.6-0.8,1.1-1.7,1.5-2.6l-3.2,0
		c-1.1,1.5-2.2,2.7-3.3,3.8c-0.3,0.2-0.4,0.2-0.7,0l-1.8-1.1c2.2-1.7,4.1-4.1,5.3-6.7l0.2,0l2.2,0.8l0,0.2c-0.2,0.4-0.4,0.7-0.6,1
		l2.2,0l1.3-0.1L184.7,37.6z"/>
	<path d="M199,42.8h-7.3l-2.4,0l-0.1-0.1v-2.3l0.1-0.1l2.3,0h7.3l2.5,0l0.1,0.1v2.3l-0.1,0.1L199,42.8z"/>
</g>
</svg>
